<mxfile host="app.diagrams.net" agent="Mozilla/5.0 (Windows NT 10.0; Win64; x64) AppleWebKit/537.36 (KHTML, like Gecko) Chrome/138.0.0.0 Safari/537.36" version="27.0.5">
  <diagram name="Page-1" id="5Yd9AkdVcIcHXIE0eY5q">
    <mxGraphModel dx="5270" dy="418" grid="1" gridSize="10" guides="1" tooltips="1" connect="1" arrows="1" fold="1" page="1" pageScale="1" pageWidth="827" pageHeight="1169" math="0" shadow="0">
      <root>
        <mxCell id="0" />
        <mxCell id="1" parent="0" />
        <mxCell id="uKCk4AA4A69tWkYN0OSk-66" value="" style="rounded=1;whiteSpace=wrap;html=1;" vertex="1" parent="1">
          <mxGeometry x="-1850" y="45" width="500" height="1080" as="geometry" />
        </mxCell>
        <mxCell id="uKCk4AA4A69tWkYN0OSk-68" value="&lt;font style=&quot;font-size: 24px;&quot;&gt;Telegram chart flow&lt;/font&gt;" style="rounded=1;whiteSpace=wrap;html=1;" vertex="1" parent="1">
          <mxGeometry x="-1820" y="75" width="430" height="60" as="geometry" />
        </mxCell>
        <mxCell id="uKCk4AA4A69tWkYN0OSk-69" value="" style="rounded=1;whiteSpace=wrap;html=1;" vertex="1" parent="1">
          <mxGeometry x="-2450" y="45" width="500" height="1080" as="geometry" />
        </mxCell>
        <mxCell id="uKCk4AA4A69tWkYN0OSk-70" value="&lt;font style=&quot;font-size: 24px;&quot;&gt;WhatsApp chart flow&lt;/font&gt;" style="rounded=1;whiteSpace=wrap;html=1;" vertex="1" parent="1">
          <mxGeometry x="-2420" y="75" width="430" height="60" as="geometry" />
        </mxCell>
        <mxCell id="uKCk4AA4A69tWkYN0OSk-71" value="" style="rounded=1;whiteSpace=wrap;html=1;" vertex="1" parent="1">
          <mxGeometry x="-3070" y="40" width="500" height="1080" as="geometry" />
        </mxCell>
        <mxCell id="uKCk4AA4A69tWkYN0OSk-72" value="&lt;font style=&quot;font-size: 24px;&quot;&gt;Web chart flow&lt;/font&gt;" style="rounded=1;whiteSpace=wrap;html=1;" vertex="1" parent="1">
          <mxGeometry x="-3040" y="70" width="430" height="60" as="geometry" />
        </mxCell>
        <mxCell id="uKCk4AA4A69tWkYN0OSk-73" value="" style="rounded=1;whiteSpace=wrap;html=1;" vertex="1" parent="1">
          <mxGeometry x="-3670" y="40" width="500" height="1080" as="geometry" />
        </mxCell>
        <mxCell id="uKCk4AA4A69tWkYN0OSk-74" value="&lt;font style=&quot;font-size: 24px;&quot;&gt;Server flow + Supabase backend&lt;/font&gt;" style="rounded=1;whiteSpace=wrap;html=1;" vertex="1" parent="1">
          <mxGeometry x="-3640" y="70" width="430" height="60" as="geometry" />
        </mxCell>
      </root>
    </mxGraphModel>
  </diagram>
</mxfile>
